<?xml version="1.0" encoding="utf-8"?>
<!-- Generator: Adobe Illustrator 16.0.3, SVG Export Plug-In . SVG Version: 6.00 Build 0)  -->
<!DOCTYPE svg PUBLIC "-//W3C//DTD SVG 1.1//EN" "http://www.w3.org/Graphics/SVG/1.1/DTD/svg11.dtd">
<svg version="1.1" id="Layer_1" xmlns="http://www.w3.org/2000/svg" xmlns:xlink="http://www.w3.org/1999/xlink" x="0px" y="0px"
	 width="612px" height="792px" viewBox="0 0 612 792" enable-background="new 0 0 612 792" xml:space="preserve">
<path d="M355.5,210.375V0H46.125C25.552,0,9,16.552,9,37.125v717.75C9,775.448,25.552,792,46.125,792h519.75
	C586.448,792,603,775.448,603,754.875V247.5H392.625C372.206,247.5,355.5,230.794,355.5,210.375z M454.5,575.438
	c0,10.209-8.354,18.563-18.563,18.563H176.063c-10.209,0-18.563-8.354-18.563-18.563v-12.375c0-10.209,8.353-18.563,18.563-18.563
	h259.875c10.209,0,18.563,8.354,18.563,18.563V575.438z M454.5,476.438c0,10.209-8.354,18.563-18.563,18.563H176.063
	c-10.209,0-18.563-8.354-18.563-18.563v-12.375c0-10.209,8.353-18.563,18.563-18.563h259.875c10.209,0,18.563,8.354,18.563,18.563
	V476.438z M454.5,365.063v12.375c0,10.209-8.354,18.563-18.563,18.563H176.063c-10.209,0-18.563-8.353-18.563-18.563v-12.375
	c0-10.209,8.353-18.563,18.563-18.563h259.875C446.146,346.5,454.5,354.853,454.5,365.063z M603,188.564V198H405V0h9.436
	c9.9,0,19.336,3.867,26.297,10.828l151.439,151.594C599.133,169.383,603,178.819,603,188.564z"/>
</svg>
