<?xml version="1.0" encoding="utf-8"?>
<!-- Generator: Adobe Illustrator 16.0.3, SVG Export Plug-In . SVG Version: 6.00 Build 0)  -->
<!DOCTYPE svg PUBLIC "-//W3C//DTD SVG 1.1//EN" "http://www.w3.org/Graphics/SVG/1.1/DTD/svg11.dtd">
<svg version="1.1" id="Layer_1" xmlns="http://www.w3.org/2000/svg" xmlns:xlink="http://www.w3.org/1999/xlink" x="0px" y="0px"
	 width="650px" height="792px" viewBox="-19 0 650 792" enable-background="new -19 0 650 792" xml:space="preserve">
<g opacity="0.8">
	<path fill="#FF5500" d="M620.172,162.422L468.732,10.828C461.771,3.867,452.336,0,442.436,0H433v198h198v-9.436
		C631,178.819,627.133,169.383,620.172,162.422z"/>
	<path fill="#FF5500" d="M383.5,210.375V0H330v346.5h133.938c10.209,0,18.563,8.353,18.563,18.563v12.375
		c0,10.209-8.354,18.563-18.563,18.563H330v49.5h133.938c10.209,0,18.563,8.354,18.563,18.563v12.375
		c0,10.209-8.354,18.563-18.563,18.563H330v49.5h133.938c10.209,0,18.563,8.354,18.563,18.563v12.375
		c0,10.209-8.354,18.563-18.563,18.563H330v198h263.875C614.448,792,631,775.448,631,754.875V247.5H420.625
		C400.206,247.5,383.5,230.794,383.5,210.375z"/>
</g>
<path opacity="0.8" fill="#FF5500" d="M148.063,594c-10.209,0-18.563-8.354-18.563-18.563v-12.375
	c0-10.209,8.353-18.563,18.563-18.563H274V495H148.063c-10.209,0-18.563-8.354-18.563-18.563v-12.375
	c0-10.209,8.353-18.563,18.563-18.563H274V396H148.063c-10.209,0-18.563-8.353-18.563-18.563v-12.375
	c0-10.209,8.353-18.563,18.563-18.563H274V0H18.125C-2.448,0-19,16.552-19,37.125v717.75C-19,775.448-2.448,792,18.125,792H274V594
	H148.063z"/>
<line fill="none" x1="306" y1="716.5" x2="306" y2="562.5"/>
</svg>
