<?xml version="1.0" encoding="utf-8"?>
<!-- Generator: Adobe Illustrator 16.0.3, SVG Export Plug-In . SVG Version: 6.00 Build 0)  -->
<!DOCTYPE svg PUBLIC "-//W3C//DTD SVG 1.1//EN" "http://www.w3.org/Graphics/SVG/1.1/DTD/svg11.dtd">
<svg version="1.1" id="Layer_1" xmlns="http://www.w3.org/2000/svg" xmlns:xlink="http://www.w3.org/1999/xlink" x="0px" y="0px"
	 width="612px" height="792px" viewBox="0 0 612 792" enable-background="new 0 0 612 792" xml:space="preserve">
<path opacity="0.6" fill="#FF5500" stroke="#FF5500" stroke-miterlimit="10" d="M155.396,594c-10.209,0-18.563-8.354-18.563-18.563
	v-12.375c0-10.209,8.353-18.563,18.563-18.563h153.77V495h-153.77c-10.209,0-18.563-8.354-18.563-18.563v-12.375
	c0-10.209,8.353-18.563,18.563-18.563h153.77V396h-153.77c-10.209,0-18.563-8.353-18.563-18.563v-12.375
	c0-10.209,8.353-18.563,18.563-18.563h153.77V0H25.458C4.885,0-11.667,16.552-11.667,37.125v717.75
	c0,20.573,16.552,37.125,37.125,37.125h283.708V594H155.396z"/>
<g opacity="0.6">
	<path fill="#FF5500" d="M660.839,162.422L509.399,10.828C502.438,3.867,493.003,0,483.103,0h-9.436v198h198v-9.436
		C671.667,178.819,667.8,169.383,660.839,162.422z"/>
	<path fill="#FF5500" d="M424.167,210.375V0H398.5v346.5h106.104c10.209,0,18.563,8.353,18.563,18.563v12.375
		c0,10.21-8.354,18.563-18.563,18.563H398.5v49.5h106.104c10.209,0,18.563,8.354,18.563,18.563v12.375
		c0,10.209-8.354,18.563-18.563,18.563H398.5v49.5h106.104c10.209,0,18.563,8.354,18.563,18.563v12.375
		c0,10.209-8.354,18.563-18.563,18.563H398.5v198h236.042c20.573,0,37.125-16.552,37.125-37.125V247.5H461.292
		C440.873,247.5,424.167,230.794,424.167,210.375z"/>
</g>
</svg>
